<?xml version="1.0" encoding="UTF-8"?>
<svg width="38px" height="29px" viewBox="0 0 38 29" version="1.1" xmlns="http://www.w3.org/2000/svg" xmlns:xlink="http://www.w3.org/1999/xlink">
    <!-- Generator: Sketch 52.4 (67378) - http://www.bohemiancoding.com/sketch -->
    <title>check-1</title>
    <desc>Created with Sketch.</desc>
    <g id="页面-1" stroke="none" stroke-width="1" fill="none" fill-rule="evenodd">
        <g id="店铺首页" transform="translate(-1414.000000, -2362.000000)" fill="#999999" fill-rule="nonzero">
            <g id="分组-40" transform="translate(-209.000000, 2360.000000)">
                <g id="分组-16" transform="translate(582.000000, 0.000000)">
                    <g id="分组-4-copy-4" transform="translate(780.000000, 2.000000)">
                        <path d="M297.8125,7.25 L280,7.25 L280,4.83333333 C280,2.16775 277.869625,0 275.25,0 L262.1875,0 C261.532,0 261,0.541333333 261,1.20833333 L261,20.5416667 C261,21.2086667 261.532,21.75 262.1875,21.75 L268.125,21.75 L268.125,27.7916667 C268.125,28.4586667 268.657,29 269.3125,29 L297.8125,29 C298.468,29 299,28.4586667 299,27.7916667 L299,8.45833333 C299,7.79133333 298.468,7.25 297.8125,7.25 Z M275.25,26.5833333 L270.5,26.5833333 L270.5,21.75 L275.25,21.75 C276.561,21.75 277.625,22.8350833 277.625,24.1666667 C277.625,25.49825 276.561,26.5833333 275.25,26.5833333 Z M296.625,26.5833333 L279.33975,26.5833333 C279.74825,25.8704167 280,25.0511667 280,24.1666667 L280,19.3333333 L283.5625,19.3333333 C284.218,19.3333333 284.75,18.792 284.75,18.125 C284.75,17.458 284.218,16.9166667 283.5625,16.9166667 L280,16.9166667 L280,14.5 L288.3125,14.5 C288.968,14.5 289.5,13.9586667 289.5,13.2916667 C289.5,12.6246667 288.968,12.0833333 288.3125,12.0833333 L280,12.0833333 L280,9.66666667 L296.625,9.66666667 L296.625,26.5833333 Z M293.0625,21.75 L290.6875,21.75 C290.032,21.75 289.5,22.2913333 289.5,22.9583333 C289.5,23.6253333 290.032,24.1666667 290.6875,24.1666667 L293.0625,24.1666667 C293.718,24.1666667 294.25,23.6253333 294.25,22.9583333 C294.25,22.2913333 293.718,21.75 293.0625,21.75 Z" id="check-1"></path>
                    </g>
                </g>
            </g>
        </g>
    </g>
</svg>