<?xml version="1.0" encoding="UTF-8"?>
<svg width="34px" height="38px" viewBox="0 0 34 38" version="1.1" xmlns="http://www.w3.org/2000/svg" xmlns:xlink="http://www.w3.org/1999/xlink">
    <!-- Generator: Sketch 52.4 (67378) - http://www.bohemiancoding.com/sketch -->
    <title>dollar-7</title>
    <desc>Created with Sketch.</desc>
    <g id="页面-1" stroke="none" stroke-width="1" fill="none" fill-rule="evenodd">
        <g id="店铺首页" transform="translate(-374.000000, -2360.000000)" fill="#999999" fill-rule="nonzero">
            <g id="分组-40" transform="translate(-209.000000, 2360.000000)">
                <g id="分组-16" transform="translate(582.000000, 0.000000)">
                    <g id="分组-4">
                        <path d="M34.9781436,5.85874859 C34.9805721,5.89671537 35,5.92756338 35,5.96553016 L35,20.2030723 C35,29.5832397 30.4878653,34.3907831 18.3502714,37.9501686 C18.2361324,37.9833895 18.1171363,38 18.0005688,38 C17.8840013,38 17.7650053,37.9833895 17.6508662,37.9501686 C5.58612708,34.4145123 0.916140484,29.4361184 1.00113764,20.1935806 L1.00113764,5.96553016 C1.00113764,5.92756338 1.02056556,5.89671537 1.02299405,5.85874859 C1.03027952,5.77806919 1.04727895,5.70213563 1.07156385,5.62382915 C1.09342027,5.55026852 1.12013366,5.48382665 1.15656101,5.41738479 C1.19298836,5.35094292 1.2342727,5.29399276 1.2828425,5.23466966 C1.33384079,5.17060072 1.38969607,5.11365056 1.45283681,5.06144623 C1.48197869,5.037717 1.49897812,5.00449607 1.5305485,4.98313975 C11.5383565,-1.66104658 24.4627812,-1.66104658 34.4681607,4.98313975 C34.499731,5.00449607 34.5167305,5.037717 34.5458723,5.06144623 C34.6114416,5.11365056 34.6648684,5.17060072 34.7182951,5.23466966 C34.7668649,5.29399276 34.8081493,5.35094292 34.8445766,5.41738479 C34.881004,5.48382665 34.9077174,5.55026852 34.9295738,5.62382915 C34.9538587,5.70213563 34.9708581,5.77806919 34.9781436,5.85874859 Z M18.0005688,16.3579725 C17.1463055,16.3579725 16.4529904,15.6984376 16.4529904,14.8857964 C16.4529904,14.0731551 17.1463055,13.4136202 18.0005688,13.4136202 L21.0957257,13.4136202 C21.9499889,13.4136202 22.6433041,12.7540853 22.6433041,11.9414441 C22.6433041,11.1288029 21.9499889,10.469268 21.0957257,10.469268 L19.5481472,10.469268 L19.5481472,8.99709183 C19.5481472,8.18445061 18.8548321,7.5249157 18.0005688,7.5249157 C17.1463055,7.5249157 16.4529904,8.18445061 16.4529904,8.99709183 L16.4529904,10.7401484 C14.6547043,11.3496293 13.3578336,12.969023 13.3578336,14.8857964 C13.3578336,17.3207757 15.4408741,19.3023248 18.0005688,19.3023248 C18.8548321,19.3023248 19.5481472,19.9618597 19.5481472,20.7745009 C19.5481472,21.5871421 18.8548321,22.246677 18.0005688,22.246677 L14.905412,22.246677 C14.0511487,22.246677 13.3578336,22.9062119 13.3578336,23.7188531 C13.3578336,24.5314944 14.0511487,25.1910293 14.905412,25.1910293 L16.4529904,25.1910293 L16.4529904,26.6632054 C16.4529904,27.4758466 17.1463055,28.1353815 18.0005688,28.1353815 C18.8548321,28.1353815 19.5481472,27.4758466 19.5481472,26.6632054 L19.5481472,24.9201489 C21.3464334,24.310668 22.6433041,22.6912742 22.6433041,20.7745009 C22.6433041,18.3395216 20.5601668,16.3579725 18.0005688,16.3579725 Z" id="dollar-7"></path>
                    </g>
                </g>
            </g>
        </g>
    </g>
</svg>