<?xml version="1.0" encoding="UTF-8"?>
<svg width="38px" height="38px" viewBox="0 0 38 38" version="1.1" xmlns="http://www.w3.org/2000/svg" xmlns:xlink="http://www.w3.org/1999/xlink">
    <!-- Generator: Sketch 52.4 (67378) - http://www.bohemiancoding.com/sketch -->
    <title>dollar-8</title>
    <desc>Created with Sketch.</desc>
    <g id="页面-1" stroke="none" stroke-width="1" fill="none" fill-rule="evenodd">
        <g id="店铺首页" transform="translate(-1150.000000, -2361.000000)" fill="#999999" fill-rule="nonzero">
            <g id="分组-40" transform="translate(-209.000000, 2360.000000)">
                <g id="分组-16" transform="translate(582.000000, 0.000000)">
                    <g id="分组-4-copy-3" transform="translate(777.000000, 1.000000)">
                        <path d="M37.2517124,21.576875 C36.6627525,20.8145 35.8149352,20.332375 34.8626251,20.213625 C33.9126898,20.0925 32.9912526,20.356125 32.2598024,20.935625 L23.795879,27.49775 C22.9765598,28.14375 21.9482549,28.5 20.8985764,28.5 L18.8609652,28.5 C20.4069848,26.9895 21.373544,24.89 21.373544,22.5625 C21.373544,21.907 20.8415802,21.375 20.1861249,21.375 L7.12451467,21.375 L7.12451467,20.1875 C7.12451467,19.532 6.59255091,19 5.93709556,19 L1.18741911,19 C0.529588924,19 0,19.532 0,20.1875 L0,36.8125 C0,37.468 0.529588924,38 1.18741911,38 L5.93709556,38 C6.59255091,38 7.12451467,37.468 7.12451467,36.8125 L7.12451467,35.625 L22.9409372,35.625 C24.2375989,35.625 25.5223864,35.18325 26.5673152,34.378125 L36.610506,26.56675 C37.3728291,25.97775 37.8572961,25.129875 37.9736632,24.175125 C38.0876554,23.23225 37.8287981,22.306 37.2517124,21.576875 Z M4.74967645,35.625 L2.37483822,35.625 L2.37483822,21.375 L4.74967645,21.375 L4.74967645,35.625 Z M22.5609631,11.875 C24.5249543,11.875 26.1232205,13.473375 26.1232205,15.4375 C26.1232205,16.983625 25.1281632,18.289875 23.7483822,18.7815 L23.7483822,20.1875 C23.7483822,20.843 23.2164185,21.375 22.5609631,21.375 C21.9055078,21.375 21.373544,20.843 21.373544,20.1875 L21.373544,19 L20.1861249,19 C19.5306695,19 18.9987058,18.468 18.9987058,17.8125 C18.9987058,17.157 19.5306695,16.625 20.1861249,16.625 L22.5609631,16.625 C23.2164185,16.625 23.7483822,16.093 23.7483822,15.4375 C23.7483822,14.782 23.2164185,14.25 22.5609631,14.25 C20.5969719,14.25 18.9987058,12.651625 18.9987058,10.6875 C18.9987058,9.141375 19.993763,7.835125 21.373544,7.3435 L21.373544,5.9375 C21.373544,5.282 21.9055078,4.75 22.5609631,4.75 C23.2164185,4.75 23.7483822,5.282 23.7483822,5.9375 L23.7483822,7.125 L24.9358013,7.125 C25.5912567,7.125 26.1232205,7.657 26.1232205,8.3125 C26.1232205,8.968 25.5912567,9.5 24.9358013,9.5 L22.5609631,9.5 C21.9055078,9.5 21.373544,10.032 21.373544,10.6875 C21.373544,11.343 21.9055078,11.875 22.5609631,11.875 Z M22.5609631,7.10542736e-15 C29.7638474,7.10542736e-15 35.6225733,5.859125 35.6225733,13.0625 C35.6225733,14.860375 35.2639728,16.6155 34.5538961,18.278 C34.3615342,18.72925 33.9221892,19 33.4614706,19 C33.3047312,19 33.1479919,18.969125 32.9960023,18.905 C32.3927934,18.6485 32.1101876,17.95025 32.369045,17.347 C32.9508803,15.981375 33.2477351,14.53975 33.2477351,13.0625 C33.2477351,7.170125 28.4529367,2.375 22.5609631,2.375 C16.6689895,2.375 11.8741911,7.170125 11.8741911,13.0625 C11.8741911,14.53975 12.1710459,15.981375 12.7528813,17.347 C13.0117386,17.95025 12.7291329,18.6485 12.125924,18.905 C11.5274647,19.1615 10.8268875,18.883625 10.5680301,18.278 C9.85795346,16.6155 9.49935289,14.860375 9.49935289,13.0625 C9.49935289,5.859125 15.3580788,7.10542736e-15 22.5609631,7.10542736e-15 Z" id="dollar-8"></path>
                    </g>
                </g>
            </g>
        </g>
    </g>
</svg>