<?xml version="1.0" encoding="UTF-8"?>
<svg width="39px" height="33px" viewBox="0 0 39 33" version="1.1" xmlns="http://www.w3.org/2000/svg" xmlns:xlink="http://www.w3.org/1999/xlink">
    <!-- Generator: Sketch 52.6 (67491) - http://www.bohemiancoding.com/sketch -->
    <title>分组 19</title>
    <desc>Created with Sketch.</desc>
    <g id="首页" stroke="none" stroke-width="1" fill="none" fill-rule="evenodd">
        <g id="店铺首页_工厂实力认证_姜斌" transform="translate(-1303.000000, -2310.000000)" fill-rule="nonzero">
            <g id="分组-19" transform="translate(1303.000000, 2310.000000)">
                <g id="企业-工厂-建筑" fill="#333333">
                    <path d="M37.7,30.4615385 L36.4,30.4615385 L36.4,12.6923077 C36.4,9.9 34.06,7.61538462 31.2,7.61538462 L23.4,7.61538462 L23.4,5.07692308 C23.4,2.28461538 21.06,0 18.2,0 L7.8,0 C4.94,0 2.6,2.28461538 2.6,5.07692308 L2.6,30.4615385 L1.3,30.4615385 C0.572,30.4615385 0,31.02 0,31.7307692 C0,32.4415385 0.572,33 1.3,33 L37.7,33 C38.428,33 39,32.4415385 39,31.7307692 C39,31.02 38.428,30.4615385 37.7,30.4615385 Z M20.8,7.61538462 L20.8,10.1538462 L20.8,30.4615385 L5.2,30.4615385 L5.2,5.07692308 C5.2,3.68076923 6.37,2.53846154 7.8,2.53846154 L18.2,2.53846154 C19.63,2.53846154 20.8,3.68076923 20.8,5.07692308 L20.8,7.61538462 Z M33.8,30.4615385 L23.4,30.4615385 L23.4,10.1538462 L31.2,10.1538462 C32.63,10.1538462 33.8,11.2961538 33.8,12.6923077 L33.8,30.4615385 Z" id="形状"></path>
                </g>
                <rect id="矩形" fill="#FA7268" x="7.3125" y="11" width="9.75" height="2.44444444" rx="1.22222222"></rect>
                <rect id="矩形-copy-10" fill="#FA7268" x="7.3125" y="17.1111111" width="9.75" height="2.44444444" rx="1.22222222"></rect>
                <rect id="矩形-copy-21" fill="#FA7268" x="25.59375" y="17.1111111" width="4.875" height="2.44444444" rx="1.22222222"></rect>
                <rect id="矩形-copy-11" fill="#FA7268" x="7.3125" y="23.2222222" width="9.75" height="2.44444444" rx="1.22222222"></rect>
                <rect id="矩形-copy-22" fill="#FA7268" x="25.59375" y="23.2222222" width="4.875" height="2.44444444" rx="1.22222222"></rect>
            </g>
        </g>
    </g>
</svg>