<?xml version="1.0" encoding="UTF-8"?>
<svg width="32px" height="36px" viewBox="0 0 32 36" version="1.1" xmlns="http://www.w3.org/2000/svg" xmlns:xlink="http://www.w3.org/1999/xlink">
    <!-- Generator: Sketch 52.6 (67491) - http://www.bohemiancoding.com/sketch -->
    <title>分组 20</title>
    <desc>Created with Sketch.</desc>
    <g id="首页" stroke="none" stroke-width="1" fill="none" fill-rule="evenodd">
        <g id="店铺首页_工厂实力认证_姜斌" transform="translate(-466.000000, -2310.000000)" fill-rule="nonzero">
            <g id="分组-20" transform="translate(466.000000, 2310.000000)">
                <g id="企业简介" fill="#000000">
                    <path d="M28.9221902,0.0660038867 C28.4372719,-0.0119724172 27.9623439,0.000773709428 27.4751201,0.000773709428 L3.70489914,0.000773709428 C2.63976945,0.000773709428 1.57540826,0.530862621 0.919884726,1.40359741 C0.322667868,2.18543254 4.74526767e-05,3.13445093 0,4.10952511 L0,31.8960811 C0,32.9412635 0.361959654,33.8867261 0.990585975,34.6897321 C1.63535062,35.5152313 2.6920269,35.9995841 3.7079731,35.9995841 L27.5089337,35.9995841 C28.0261287,35.9995841 28.5210375,36.0108307 29.03439,35.9163594 C29.8228626,35.7709036 30.5928915,35.2468128 31.0801153,34.5975102 C31.672704,33.8201693 31.9950248,32.8783376 32,31.909577 L32,4.15601098 C32,2.28382991 30.7996158,0.365162976 28.9221902,0.0660038867 Z M29.9012488,32.1547525 C29.8958694,32.1622502 29.8620557,32.3886814 29.8474544,32.4516622 C29.8225178,32.5502125 29.7927689,32.647544 29.7583093,32.7433236 L29.745245,32.7725647 C29.711135,32.8451303 29.6742209,32.9164097 29.6345821,32.9862498 C29.6099904,33.0319859 29.5170029,33.1669449 29.4893372,33.212681 C29.4412759,33.2688066 29.3915593,33.3235629 29.3402498,33.3768811 C29.3056676,33.4128701 29.1919308,33.5095908 29.1496638,33.5463296 C29.0747689,33.5971487 28.9975868,33.6446816 28.9183477,33.6887863 L28.8707012,33.7142786 L28.8069164,33.7397708 C28.7029451,33.7755712 28.5966614,33.8046258 28.4887608,33.8267444 C28.4445117,33.8301148 28.4001804,33.8323648 28.3558117,33.8334923 C28.3358309,33.8349919 28.3150817,33.8349919 28.2935639,33.8349919 L3.70489914,33.8349919 L3.64495677,33.8334923 C3.5998059,33.8327581 3.55469432,33.8305075 3.50970221,33.8267444 L3.46589817,33.8162476 C3.35787918,33.7930034 3.25178884,33.7619265 3.14851105,33.7232758 C3.01986751,33.6587705 2.89766182,33.582715 2.78347743,33.4960949 C2.72637255,33.444628 2.67150525,33.390847 2.61902017,33.3348938 C2.58443804,33.298155 2.49145053,33.1781915 2.45533141,33.1347047 C2.41349898,33.0693433 2.37402555,33.0025727 2.33698367,32.9345155 C2.31085495,32.8887794 2.24399616,32.7328268 2.22170989,32.6848414 C2.19019045,32.5878812 2.16225057,32.4898478 2.13794428,32.3909307 C2.12334294,32.3309489 2.11258405,32.2702174 2.10105668,32.2087361 C2.09208427,32.1092593 2.08772504,32.0094378 2.08799232,31.909577 L2.08799232,4.0907808 C2.08799232,3.9993086 2.09260327,3.90933594 2.0987512,3.81711397 C2.10259366,3.78862262 2.10874159,3.75563265 2.11258405,3.73388926 C2.12795389,3.65141432 2.14716619,3.57043893 2.16945245,3.48871376 C2.1832853,3.43473017 2.24783862,3.25928348 2.26090298,3.2157967 C2.29394813,3.14756743 2.32929875,3.08083771 2.36618636,3.01410799 C2.39154659,2.96762212 2.49145053,2.82366586 2.51373679,2.78392794 C2.57367915,2.71419913 2.63592699,2.64746941 2.70048031,2.582989 C2.73275696,2.54999903 2.76887608,2.51775883 2.8049952,2.48701817 C2.89260327,2.42253776 2.98712776,2.36630485 3.08088377,2.31307103 L3.13006724,2.28757878 C3.15158501,2.27783174 3.17617675,2.26883447 3.19231508,2.26208652 C3.27070125,2.23434495 3.34985591,2.21185179 3.43054755,2.19385726 C3.45898175,2.19235771 3.6426513,2.16686546 3.70643612,2.16686546 L28.2951009,2.16686546 C28.3533222,2.16668084 28.4115249,2.16893222 28.4695485,2.17361341 L28.5348703,2.18411022 C28.6424592,2.20660338 28.7477426,2.2410929 28.849952,2.27783174 C28.9075889,2.30632308 28.9621518,2.33706374 29.0167147,2.36855417 C29.0612872,2.39554597 29.1880884,2.49001726 29.2303554,2.51775883 C29.2818444,2.56499447 29.3317963,2.61522921 29.3802113,2.66621371 C29.415562,2.70220278 29.5116234,2.82591518 29.5462056,2.86790242 C29.6250265,2.99259784 29.6956149,3.12207143 29.7575408,3.25553462 C29.7990394,3.37174931 29.8320845,3.49021331 29.8620557,3.61017685 C29.8758886,3.67015862 29.8874159,3.7301404 29.8981748,3.79012217 C29.9073967,3.89059164 29.9120077,3.99106111 29.9120077,4.09153057 L29.9120077,31.8548436 L29.9127762,31.909577 C29.9112352,31.9913897 29.9073913,32.0731457 29.9012488,32.1547525 Z" id="形状"></path>
                </g>
                <rect id="矩形" fill="#FA7268" x="7" y="20" width="12" height="2" rx="1"></rect>
                <rect id="矩形-copy-9" fill="#FA7268" x="7" y="25" width="18" height="2" rx="1"></rect>
                <circle id="椭圆形" fill="#FA7268" cx="9" cy="10" r="2"></circle>
                <circle id="椭圆形-copy" fill="#FA7268" cx="16" cy="10" r="2"></circle>
                <circle id="椭圆形-copy-2" fill="#FA7268" cx="23" cy="10" r="2"></circle>
            </g>
        </g>
    </g>
</svg>