<?xml version="1.0" encoding="UTF-8"?>
<svg width="38px" height="38px" viewBox="0 0 38 38" version="1.1" xmlns="http://www.w3.org/2000/svg" xmlns:xlink="http://www.w3.org/1999/xlink">
    <!-- Generator: Sketch 52.4 (67378) - http://www.bohemiancoding.com/sketch -->
    <title>ic_pingtaibaguan</title>
    <desc>Created with Sketch.</desc>
    <g id="页面-1" stroke="none" stroke-width="1" fill="none" fill-rule="evenodd">
        <g id="店铺首页" transform="translate(-628.000000, -2360.000000)" fill="#999999" fill-rule="nonzero">
            <g id="分组-40" transform="translate(-209.000000, 2360.000000)">
                <g id="分组-16" transform="translate(582.000000, 0.000000)">
                    <g id="分组-4-copy" transform="translate(255.000000, 0.000000)">
                        <path d="M36.8125,30.875 C37.468,30.875 38,31.407 38,32.0625 C38,35.33525 35.337625,38 32.0625,38 L15.4375,38 C12.162375,38 9.5,35.33525 9.5,32.0625 L9.5,7.125 L1.1875,7.125 C0.532,7.125 0,6.593 0,5.9375 C0,2.66475 2.662375,0 5.9375,0 L27.3125,0 C30.587625,0 33.25,2.66475 33.25,5.9375 L33.25,30.875 L36.8125,30.875 Z M2.57925,4.75 L9.29575,4.75 C8.8065,3.36775 7.486,2.375 5.9375,2.375 C4.389,2.375 3.0685,3.36775 2.57925,4.75 Z M32.0625,35.625 C33.611,35.625 34.9315,34.63225 35.42075,33.25 L21.25625,33.25 C21.078125,34.126375 20.70525,34.933875 20.185125,35.625 L32.0625,35.625 Z M21.4876033,9 C21.0661157,9 20.7190083,9.11938202 20.4214876,9.40589888 C20.1239669,9.64466292 20,9.97893258 20,10.4087079 C20,10.8146067 20.1239669,11.1488764 20.4214876,11.4353933 C20.7190083,11.6980337 21.0661157,11.8412921 21.4876033,11.8412921 C21.9090909,11.8412921 22.2561983,11.6980337 22.553719,11.4353933 C22.8512397,11.1488764 23,10.8146067 23,10.4087079 C23,9.97893258 22.8512397,9.64466292 22.553719,9.40589888 C22.2561983,9.11938202 21.9090909,9 21.4876033,9 Z M20.4958678,13.6558989 L20.4958678,26 L22.4793388,26 L22.4793388,13.6558989 L20.4958678,13.6558989 Z" id="ic_pingtaibaguan"></path>
                    </g>
                </g>
            </g>
        </g>
    </g>
</svg>