<?xml version="1.0" encoding="UTF-8"?>
<svg width="14px" height="16px" viewBox="0 0 14 16" version="1.1" xmlns="http://www.w3.org/2000/svg" xmlns:xlink="http://www.w3.org/1999/xlink">
    <!-- Generator: Sketch 52.4 (67378) - http://www.bohemiancoding.com/sketch -->
    <title>ic_qq</title>
    <desc>Created with Sketch.</desc>
    <g id="页面-1" stroke="none" stroke-width="1" fill="none" fill-rule="evenodd">
        <g id="店铺首页" transform="translate(-1898.000000, -410.000000)" fill="#FF9834">
            <g id="分组-16" transform="translate(1890.000000, 0.000000)">
                <g id="分组-19" transform="translate(0.000000, 279.000000)">
                    <path d="M15.0738867,131.5 C18.0292229,131.5 20.4673999,133.819503 20.4673999,136.674842 C20.4673999,137.174355 20.3934559,137.602262 20.2823605,138.030602 C20.8365814,138.351965 21.3908023,139.172408 21.7602529,140.207758 C22.2034681,141.670494 22.0187876,143.062664 21.3168583,143.276531 C20.9475871,143.383421 20.5041027,143.169554 20.1349212,142.741214 C19.913179,143.133751 19.6546443,143.526287 19.3589582,143.883454 C20.2085063,144.097407 20.7997889,144.597007 20.7997889,145.168127 C20.7997889,145.98909 19.6174929,146.666667 18.1768416,146.666667 C17.1055513,146.666667 16.1450873,146.274217 15.7758161,145.738814 C15.5172814,145.77453 15.2955392,145.81042 15.0738867,145.81042 C14.8521445,145.81042 14.6306715,145.774617 14.3718676,145.738814 C14.0025964,146.274217 13.0421324,146.666667 11.9708421,146.666667 C10.5301908,146.666667 9.34789483,145.98909 9.34789483,145.168127 C9.34789483,144.597007 9.93917743,144.097407 10.7887255,143.883454 C10.4562468,143.490917 10.1977121,143.062664 9.97596995,142.634238 C9.56963702,143.133751 9.08944986,143.383421 8.68302719,143.276531 C7.98127731,143.062578 7.79641737,141.670408 8.23990176,140.207671 C8.60917295,139.101235 9.27404059,138.244989 9.86532319,137.959429 C9.75431749,137.566892 9.68046325,137.138465 9.68046325,136.674842 C9.68037351,133.819503 12.11873,131.5 15.0738867,131.5" id="ic_qq"></path>
                </g>
            </g>
        </g>
    </g>
</svg>