<?xml version="1.0" encoding="UTF-8"?>
<svg width="14px" height="14px" viewBox="0 0 14 14" version="1.1" xmlns="http://www.w3.org/2000/svg" xmlns:xlink="http://www.w3.org/1999/xlink">
    <!-- Generator: Sketch 52.4 (67378) - http://www.bohemiancoding.com/sketch -->
    <title>ic_shop</title>
    <desc>Created with Sketch.</desc>
    <g id="页面-1" stroke="none" stroke-width="1" fill="none" fill-rule="evenodd">
        <g id="店铺首页" transform="translate(-1897.000000, -355.000000)" fill="#FF9834">
            <g id="分组-16" transform="translate(1890.000000, 0.000000)">
                <g id="分组-19" transform="translate(0.000000, 279.000000)">
                    <path d="M9.807,88.6 C9.807,89.37 10.43,90 11.2,90 C11.97,90 12.6,89.37 12.6,88.6 C12.6,87.83 11.97,87.2 11.2,87.2 C10.43,87.2 9.807,87.83 9.807,88.6 Z M7,77.4 L8.4,77.4 L10.92,82.713 L9.975,84.428 C9.863,84.624 9.8,84.855 9.8,85.1 C9.8,85.87 10.43,86.5 11.2,86.5 L19.6,86.5 L19.6,85.1 L11.494,85.1 C11.396,85.1 11.319,85.023 11.319,84.925 L11.34,84.841 L11.97,83.7 L17.185,83.7 C17.71,83.7 18.172,83.413 18.41,82.979 L20.916,78.436 C20.972,78.338 21,78.219 21,78.1 C21,77.715 20.685,77.4 20.3,77.4 L9.947,77.4 L9.289,76 L7,76 L7,77.4 Z M16.807,88.6 C16.807,89.37 17.43,90 18.2,90 C18.97,90 19.6,89.37 19.6,88.6 C19.6,87.83 18.97,87.2 18.2,87.2 C17.43,87.2 16.807,87.83 16.807,88.6 Z" id="ic_shop"></path>
                </g>
            </g>
        </g>
    </g>
</svg>