<?xml version="1.0" encoding="UTF-8"?>
<svg width="92px" height="92px" viewBox="0 0 92 92" version="1.1" xmlns="http://www.w3.org/2000/svg" xmlns:xlink="http://www.w3.org/1999/xlink">
    <!-- Generator: Sketch 52.6 (67491) - http://www.bohemiancoding.com/sketch -->
    <title>取消</title>
    <desc>Created with Sketch.</desc>
    <g id="首页" stroke="none" stroke-width="1" fill="none" fill-rule="evenodd">
        <g id="店铺首页_工厂风貌_预览大图_姜斌" transform="translate(-914.000000, -2716.000000)" fill="#333333">
            <g id="取消" transform="translate(914.000000, 2716.000000)">
                <path d="M45.8017635,92 C34.5617326,92 23.7236263,87.929 15.2924482,80.546 C6.939807,73.2274 1.51613404,63.1764 0.0239310039,52.256 C-0.170101589,50.8254 0.837019966,49.5052 2.27378512,49.3074 C3.71055027,49.1142 5.03643966,50.117 5.23509208,51.5476 C7.9746475,71.6266 25.4144818,86.7652 45.7971437,86.7652 C68.369602,86.7652 86.7380209,68.4802 86.7380209,46.0046 C86.7380209,23.529 68.3742219,5.2394 45.7971437,5.2394 C30.1821398,5.2394 15.7036125,14.2922 8.90785188,28.2992 C8.27493604,29.601 6.704196,30.1484 5.39678591,29.5182 C4.09399564,28.888 3.54423662,27.324 4.17715246,26.0222 C7.90073032,18.3402 13.6893694,11.845 20.9147735,7.2404 C28.3388301,2.5024 36.9455616,0 45.8017635,0 C52.0385254,0 58.0858746,1.219 63.786737,3.6156 C69.2889469,5.934 74.2275384,9.2506 78.4685365,13.4734 C82.7095346,17.6962 86.0404275,22.6182 88.3688186,28.0968 C90.7757467,33.7686 92,39.79 92,46 C92,52.21 90.7803666,58.2314 88.3688186,63.9078 C86.0404275,69.3864 82.7095346,74.3038 78.4685365,78.5266 C74.2275384,82.7494 69.2889469,86.066 63.786737,88.3844 C58.0858746,90.781 52.0385254,92 45.8017635,92 Z" id="路径"></path>
                <path d="M66.1058242,69 C65.3426359,69 64.5794476,68.7037123 64.0070563,68.1202534 L23.8000614,26.7949544 C22.6971612,25.6599446 22.7390435,23.8639852 23.8977868,22.7836746 C25.05653,21.703364 26.8900435,21.7443884 27.9929437,22.8793983 L68.1999386,64.2046973 C69.3028388,65.3397071 69.2609565,67.1356665 68.1022132,68.2159771 C67.5437827,68.7401785 66.8271303,69 66.1058242,69 Z" id="路径"></path>
                <path d="M25.8941758,69 C25.1775233,69 24.4562173,68.7401785 23.8977868,68.2159771 C22.7390435,67.1356665 22.6971612,65.3397071 23.8000614,64.2046973 L64.0070563,22.8793983 C65.1099565,21.7443884 66.94347,21.703364 68.1022132,22.7836746 C69.2609565,23.8639852 69.3028388,25.6599446 68.1999386,26.7949544 L27.9929437,68.1202534 C27.4205524,68.7082706 26.6573641,69 25.8941758,69 Z" id="路径"></path>
            </g>
        </g>
    </g>
</svg>