<?xml version="1.0" encoding="UTF-8"?>
<svg width="32px" height="36px" viewBox="0 0 32 36" version="1.1" xmlns="http://www.w3.org/2000/svg" xmlns:xlink="http://www.w3.org/1999/xlink">
    <!-- Generator: Sketch 52.6 (67491) - http://www.bohemiancoding.com/sketch -->
    <title>认证信息</title>
    <desc>Created with Sketch.</desc>
    <g id="首页" stroke="none" stroke-width="1" fill="none" fill-rule="evenodd">
        <g id="店铺首页_工厂实力认证_姜斌" transform="translate(-862.000000, -2310.000000)">
            <g id="认证信息" transform="translate(862.000000, 2310.000000)">
                <path d="M32,4.23161552 C32,4.00231616 31.9388924,3.77301679 31.8166773,3.54371743 C31.4500318,2.89751013 30.6352642,2.68905617 30.0038192,3.06427331 C29.7593889,3.21019108 23.8726926,6.60799074 18.3730108,1.00057904 C17.0693826,-0.333526346 14.9306174,-0.333526346 13.60662,1.00057904 C8.08656906,6.62883613 2.24061108,3.25188188 1.99618078,3.1059641 C1.36473584,2.73074696 0.549968173,2.93920093 0.183322724,3.58540822 C0.0611075748,3.79386219 0,4.04400695 0,4.27330631 L0,19.552982 C0,23.1592357 2.30171865,26.8488709 6.82367919,30.5176607 C10.2457034,33.2900984 13.9936346,35.2495657 15.0528326,35.7707006 C15.3583705,35.9166184 15.6639083,36 15.9898154,36 C16.3157225,36 16.6212603,35.9166184 16.9267982,35.7707006 C17.9859962,35.2287203 21.7339274,33.2900984 25.1559516,30.5176607 C29.6779122,26.8488709 31.9796308,23.1592357 31.9796308,19.552982 L32,4.23161552 Z M16.0101846,33.2275622 C13.8714195,32.1227562 2.6683641,26.0984366 2.6683641,19.552982 L2.6683641,6.31615518 C3.42202419,6.56629994 4.37937619,6.79559931 5.43857416,6.89982629 C5.78485041,6.94151708 6.15149586,6.94151708 6.51814131,6.94151708 C9.02355188,6.94151708 12.3233609,6.14939201 15.4805856,2.91835553 C15.7657543,2.62651998 16.2138765,2.62651998 16.4990452,2.91835553 C20.1247613,6.60799074 23.9541693,7.10828025 26.5410567,6.8581355 C27.6206238,6.75390851 28.5779758,6.52460915 29.3316359,6.27446439 L29.3316359,19.552982 C29.3520051,26.0984366 18.1489497,32.1436016 16.0101846,33.2275622 Z" id="形状" fill="#3E3A39" fill-rule="nonzero"></path>
                <path d="M23.7436333,11.3989027 L14.2903226,20.8294013 L10.2563667,16.7848556 C9.74702886,16.2767468 8.89134126,16.2767468 8.3820034,16.7848556 C7.87266553,17.2929644 7.87266553,18.1465871 8.3820034,18.6546958 L13.3531409,23.6138373 C13.6179966,23.8780539 13.9439728,24 14.2903226,24 C14.6366723,24 14.9626486,23.8780539 15.2275042,23.6138373 L25.6179966,13.2484186 C26.1273345,12.7403099 26.1273345,11.8866872 25.6179966,11.3785784 C25.0882852,10.8704696 24.2529711,10.8704696 23.7436333,11.3989027 Z" id="路径" fill="#FA7268"></path>
            </g>
        </g>
    </g>
</svg>