<?xml version="1.0" encoding="UTF-8"?>
<svg width="38px" height="34px" viewBox="0 0 38 34" version="1.1" xmlns="http://www.w3.org/2000/svg" xmlns:xlink="http://www.w3.org/1999/xlink">
    <!-- Generator: Sketch 52.4 (67378) - http://www.bohemiancoding.com/sketch -->
    <title>safebox</title>
    <desc>Created with Sketch.</desc>
    <g id="页面-1" stroke="none" stroke-width="1" fill="none" fill-rule="evenodd">
        <g id="店铺首页" transform="translate(-893.000000, -2364.000000)" fill="#999999" fill-rule="nonzero">
            <g id="分组-40" transform="translate(-209.000000, 2360.000000)">
                <g id="分组-16" transform="translate(582.000000, 0.000000)">
                    <g id="分组-4-copy-2" transform="translate(520.000000, 4.000000)">
                        <path d="M35.625,0 L2.375,0 C1.066375,0 0,1.09042857 0,2.42857143 L0,26.7142857 C0,28.0524286 1.066375,29.1428571 2.375,29.1428571 L4.75,29.1428571 L4.75,32.7857143 C4.75,33.456 5.282,34 5.9375,34 L10.6875,34 C11.343,34 11.875,33.456 11.875,32.7857143 L11.875,29.1428571 L26.125,29.1428571 L26.125,32.7857143 C26.125,33.456 26.657,34 27.3125,34 L32.0625,34 C32.718,34 33.25,33.456 33.25,32.7857143 L33.25,29.1428571 L35.625,29.1428571 C36.933625,29.1428571 38,28.0524286 38,26.7142857 L38,2.42857143 C38,1.09042857 36.933625,0 35.625,0 Z M9.5,31.5714286 L7.125,31.5714286 L7.125,29.1428571 L9.5,29.1428571 L9.5,31.5714286 Z M30.875,31.5714286 L28.5,31.5714286 L28.5,29.1428571 L30.875,29.1428571 L30.875,31.5714286 Z M8.3125,7.28571429 C8.968,7.28571429 9.5,7.82971429 9.5,8.5 L9.5,20.6428571 C9.5,21.3131429 8.968,21.8571429 8.3125,21.8571429 C7.657,21.8571429 7.125,21.3131429 7.125,20.6428571 L7.125,8.5 C7.125,7.82971429 7.657,7.28571429 8.3125,7.28571429 Z M30.495,7.74471429 C32.1955,9.50057143 33.25,11.9121429 33.25,14.5714286 C33.25,17.2307143 32.1955,19.6422857 30.492625,21.4005714 C30.483125,21.4127143 30.478375,21.4297143 30.4665,21.4418571 C30.454625,21.454 30.438,21.4564286 30.426125,21.4685714 C28.709,23.2074286 26.350625,24.2857143 23.75,24.2857143 C21.149375,24.2857143 18.791,23.2074286 17.073875,21.4685714 C17.059625,21.4564286 17.043,21.4515714 17.031125,21.4394286 C17.01925,21.4272857 17.016875,21.4102857 17.005,21.3981429 C15.3045,19.6422857 14.25,17.2307143 14.25,14.5714286 C14.25,11.9121429 15.3045,9.50057143 17.005,7.74471429 C17.016875,7.73014286 17.016875,7.71314286 17.031125,7.701 C17.045375,7.68885714 17.059625,7.68642857 17.073875,7.67428571 C18.791,5.93542857 21.149375,4.85714286 23.75,4.85714286 C26.350625,4.85714286 28.709,5.93542857 30.4285,7.67428571 C30.440375,7.684 30.457,7.68885714 30.468875,7.701 C30.48075,7.71557143 30.483125,7.73014286 30.495,7.74471429 Z M23.7975,13.3571429 C24.453,13.3571429 24.985,13.9011429 24.985,14.5714286 C24.985,15.2417143 24.453,15.7857143 23.7975,15.7857143 C23.142,15.7857143 22.598125,15.2417143 22.598125,14.5714286 C22.598125,13.9011429 23.11825,13.3571429 23.77375,13.3571429 L23.7975,13.3571429 Z M29.545,18.7801429 C30.37625,17.5901429 30.875,16.1427143 30.875,14.5714286 C30.875,13.0001429 30.37625,11.5527143 29.547375,10.3627143 L28.78975,11.1374286 C28.557,11.373 28.253,11.492 27.949,11.492 C27.645,11.492 27.341,11.3754286 27.10825,11.1374286 C26.645125,10.6638571 26.645125,9.894 27.10825,9.42042857 L27.865875,8.64571429 C26.702125,7.79571429 25.286625,7.28571429 23.75,7.28571429 C22.213375,7.28571429 20.797875,7.79571429 19.634125,8.64571429 L20.394125,9.42042857 C20.85725,9.894 20.85725,10.6638571 20.394125,11.1374286 C20.161375,11.373 19.857375,11.492 19.553375,11.492 C19.249375,11.492 18.945375,11.3754286 18.712625,11.1374286 L17.955,10.3627143 C17.12375,11.5527143 16.625,13.0001429 16.625,14.5714286 C16.625,16.1427143 17.12375,17.5901429 17.955,18.7801429 L18.712625,18.0054286 C19.17575,17.5318571 19.928625,17.5318571 20.39175,18.0054286 C20.854875,18.479 20.854875,19.2488571 20.39175,19.7224286 L19.634125,20.4971429 C20.797875,21.3471429 22.213375,21.8571429 23.75,21.8571429 C25.286625,21.8571429 26.702125,21.3471429 27.865875,20.4971429 L27.10825,19.7224286 C26.645125,19.2488571 26.645125,18.479 27.10825,18.0054286 C27.571375,17.5318571 28.32425,17.5318571 28.787375,18.0054286 L29.545,18.7801429 Z" id="safebox"></path>
                    </g>
                </g>
            </g>
        </g>
    </g>
</svg>