<?xml version="1.0" encoding="UTF-8"?>
<svg width="16px" height="18px" viewBox="0 0 16 18" version="1.1" xmlns="http://www.w3.org/2000/svg" xmlns:xlink="http://www.w3.org/1999/xlink">
    <!-- Generator: Sketch 52.4 (67378) - http://www.bohemiancoding.com/sketch -->
    <title>验证码</title>
    <desc>Created with Sketch.</desc>
    <defs>
        <linearGradient x1="0%" y1="100%" x2="100%" y2="0%" id="linearGradient-1">
            <stop stop-color="#FF6961" offset="0%"></stop>
            <stop stop-color="#FF8D29" offset="100%"></stop>
        </linearGradient>
    </defs>
    <g id="登录注册" stroke="none" stroke-width="1" fill="none" fill-rule="evenodd">
        <g id="密码不可见-copy" transform="translate(-521.000000, -362.000000)">
            <g id="验证码" transform="translate(520.000000, 362.181276)">
                <rect id="矩形" fill="#000000" opacity="0" x="0" y="0" width="17" height="17"></rect>
                <path d="M8.63,16.9847368 C5.93,16.9847368 1.06999999,12.7647368 1,8.61473677 L1,3.86473677 C1.03269568,3.11166085 1.60242403,2.49128997 2.35,2.39473677 C3.28147142,2.30650444 4.19472492,2.08071852 5.06,1.72473677 C5.96814097,1.45832146 6.80751862,0.99768738 7.51999999,0.374736776 C8.09525214,-0.0894003342 8.90538498,-0.125856315 9.52,0.284736767 C10.2777396,0.869404354 11.1122072,1.34720437 12,1.70473677 C12.9240474,1.9831076 13.8663152,2.1969556 14.82,2.34473677 C15.5523645,2.48902076 16.0949083,3.10965803 16.14,3.85473677 C16.2041823,5.46789258 16.1874947,7.08325118 16.09,8.69473677 C15.45,14.0447368 11.27,16.9847368 8.63,16.9847368 Z M8.63,0.984736769 C8.48254071,0.980286922 8.33795399,1.02613149 8.21999999,1.11473677 C7.40738578,1.83528533 6.44385007,2.36488829 5.4,2.66473677 C4.44277283,3.05695402 3.43097121,3.29978641 2.39999999,3.38473677 C2.17513463,3.45122034 2.01550132,3.65076198 2,3.88473677 L2,8.59473677 C2.06999999,12.2847368 6.57,15.9847368 8.63,15.9847368 C10.69,15.9847368 14.51,13.5247368 15.13,8.60473677 C15.28,5.68473676 15.13,3.92473677 15.13,3.90473677 C15.1031127,3.63254138 14.9062175,3.4075183 14.64,3.34473677 C13.6247196,3.18711988 12.6221216,2.95652233 11.64,2.65473677 C10.6922462,2.25478771 9.8039392,1.72651426 9,1.08473678 C8.88197924,1.00674683 8.74083711,0.97146129 8.6,0.984736769 L8.63,0.984736769 Z" id="形状" fill="url(#linearGradient-1)"></path>
                <path d="M12.7394248,6.15942475 L7.80942476,10.8194248 C7.58672268,11.0308565 7.2487934,11.0638252 6.98942477,10.8994248 L6.85942477,10.7894248 L4.17942477,7.94942476 C4.01508259,7.77079197 3.95852362,7.51805295 4.03105307,7.28641205 C4.10358252,7.05477115 4.29418145,6.87942014 4.53105308,6.82641204 C4.76792471,6.77340394 5.0150826,6.85079195 5.17942477,7.02942476 L7.39942477,9.37942475 L11.8394248,5.17942476 C12.0180576,5.01508259 12.2707966,4.95852362 12.5024375,5.03105308 C12.7340784,5.10358253 12.9094294,5.29418145 12.9624375,5.53105307 C13.0154456,5.7679247 12.9380576,6.01508259 12.7594248,6.17942476" id="路径" fill="url(#linearGradient-1)"></path>
            </g>
        </g>
    </g>
</svg>